<svg width="58" height="58" viewBox="0 0 58 58" fill="none" xmlns="http://www.w3.org/2000/svg">
<path d="M37.288 56.4047H13.4465V58H37.288V56.4047Z" fill="#D51820"/>
<path d="M22.0304 48.2915H20.4351V57.2017H22.0304V48.2915Z" fill="#D51820"/>
<path d="M31.3202 48.2915H29.7249V57.2017H31.3202V48.2915Z" fill="#D51820"/>
<path d="M35.9865 49.6567H0V0H54.5818V19.5665H52.9865V1.59533H1.59533V48.0627H35.9865V49.6567Z" fill="#D51820"/>
<path d="M54.5466 57.9662H38.3749C36.6184 57.9662 35.1895 56.5373 35.1895 54.7807V21.9549C35.1895 20.1984 36.6184 18.7695 38.3749 18.7695H54.5466C56.3032 18.7695 57.7321 20.1984 57.7321 21.9549V54.7807C57.7321 56.5373 56.3032 57.9662 54.5466 57.9662ZM38.3749 20.3648C37.4986 20.3648 36.7848 21.0786 36.7848 21.9549V54.7807C36.7848 55.6571 37.4986 56.3709 38.3749 56.3709H54.5466C55.4229 56.3709 56.1368 55.6571 56.1368 54.7807V21.9549C56.1368 21.0786 55.4229 20.3648 54.5466 20.3648H38.3749Z" fill="#D51820"/>
<path d="M48.0859 52.8577H45.3542V54.4531H48.0859V52.8577Z" fill="#D51820"/>
<path d="M6.85843 16.1834H5.2644V5.49849H38.7182V7.09382H6.85843V16.1834Z" fill="#D51820"/>
</svg>
