<svg width="51" height="58" viewBox="0 0 51 58" fill="none" xmlns="http://www.w3.org/2000/svg">
<path d="M25.2914 58L24.9921 57.8838C18.6693 55.3542 13.5174 52.4375 9.67941 49.198C6.25779 46.3071 3.79891 43.0806 2.3548 39.6217C0.14311 34.2915 0.299229 28.3934 2.82316 21.579C5.85448 13.3836 0.962737 9.9506 0.754578 9.80863L0 9.29239L0.598458 8.60837L8.26133 0L8.85978 0.52915C8.87279 0.542056 10.8633 2.27147 13.8166 3.11037C17.7066 4.20739 21.3884 3.34268 24.771 0.516244L25.2914 0.0774366L25.8118 0.516244C29.2074 3.35559 32.9152 4.22029 36.8182 3.09746C39.7584 2.24566 41.6969 0.554962 41.7229 0.542056L42.3214 0.0129061L50.5957 9.3182L49.8412 9.82154C49.62 9.96351 44.7413 13.4094 47.7596 21.5919C50.2705 28.4063 50.4266 34.3044 48.2149 39.6346C46.7838 43.0935 44.3249 46.3071 40.8903 49.2109C37.0524 52.4504 31.9134 55.3801 25.5776 57.8968L25.2914 58ZM2.34179 9.06008C2.90122 9.58923 3.70784 10.4927 4.34533 11.7962C5.33408 13.8095 6.12769 17.2425 4.33232 22.121C1.9645 28.5483 1.79537 34.0721 3.85095 39.0151C6.68712 45.8683 13.9076 51.6889 25.2914 56.2835C36.6751 51.6889 43.8956 45.8683 46.7318 39.0151C48.7743 34.0721 48.6182 28.5483 46.2504 22.121C44.455 17.2425 45.2486 13.8224 46.2374 11.7962C46.8749 10.4798 47.6815 9.58923 48.2409 9.06008L42.1523 2.21985C41.2806 2.86515 39.5503 3.96217 37.2605 4.62038C34.3073 5.47219 29.8839 5.70449 25.2784 2.14241C20.6858 5.70449 16.2625 5.47219 13.3092 4.62038C11.0324 3.96217 9.30212 2.85225 8.41745 2.21985L2.34179 9.06008Z" fill="#D51820"/>
<path d="M26.0995 38.4861H24.4863V43.6099H26.0995V38.4861Z" fill="#D51820"/>
<path d="M26.0995 11.8093H24.4863V16.933H26.0995V11.8093Z" fill="#D51820"/>
<path d="M25.0703 38.8605C24.0165 38.8605 22.9887 38.7185 22.026 38.4346C21.0762 38.1506 20.2436 37.7247 19.5411 37.144C18.8385 36.5632 18.2531 35.8404 17.8238 35.0015C17.5896 34.5369 17.4074 34.0207 17.2773 33.4528L18.8515 33.1173C18.9426 33.5432 19.0857 33.9432 19.2549 34.2788C19.5931 34.9241 20.0224 35.4791 20.5689 35.9179C21.1023 36.3567 21.7528 36.6922 22.4943 36.9117C23.3009 37.1569 24.1726 37.273 25.0703 37.273C26.0851 37.273 27.0478 37.1698 27.9455 36.9504C28.7391 36.7568 29.4416 36.4599 30.0011 36.0728C30.5215 35.7114 30.9378 35.2468 31.25 34.6531C31.6013 34.0078 31.7574 33.3108 31.7054 32.5881C31.6403 31.6072 31.211 30.9619 30.1312 30.1747C29.6108 29.7875 28.9473 29.439 28.1146 29.0906C27.256 28.7421 26.4103 28.4065 25.6167 28.1226C24.8101 27.8516 24.0165 27.5418 23.2619 27.2192C22.4683 26.8836 21.7528 26.5222 21.1023 26.148C20.3347 25.6963 19.6972 25.1929 19.2158 24.6379C18.5523 23.8765 18.188 22.9473 18.188 21.9406C18.188 20.3273 18.9296 18.9851 20.3347 18.0558C21.5056 17.2815 23.0407 16.9072 25.0443 16.9072C26.6835 16.9072 28.1537 17.204 29.4156 17.7848C30.1051 18.1075 31.3671 18.8947 32.0176 20.6112L30.5085 21.1662C30.0531 19.9788 29.2075 19.4368 28.7391 19.2303C27.6853 18.7399 26.4363 18.4946 25.0443 18.4946C23.379 18.4946 22.1301 18.7786 21.2324 19.3723C20.2826 20.0047 19.8013 20.8694 19.8013 21.9277C19.8013 22.5343 20.0224 23.115 20.4257 23.5796C20.79 24.0056 21.2974 24.3927 21.9089 24.7541C22.4943 25.0897 23.1578 25.4252 23.8864 25.735C24.6019 26.0447 25.3695 26.3286 26.1501 26.5997C26.9828 26.8965 27.8414 27.2321 28.7261 27.5934C29.6758 27.9806 30.4434 28.3936 31.0809 28.8582C32.1087 29.6068 33.1885 30.6264 33.3056 32.459C33.3706 33.4915 33.1625 34.4724 32.6551 35.3887C32.2128 36.2018 31.6403 36.8342 30.9118 37.3505C30.1702 37.8667 29.2985 38.241 28.2968 38.4733C27.308 38.7443 26.2152 38.8605 25.0703 38.8605Z" fill="#D51820"/>
</svg>
