<svg width="58" height="59" viewBox="0 0 58 59" fill="none" xmlns="http://www.w3.org/2000/svg">
<g clip-path="url(#clip0_956_4226)">
<path d="M38.5066 14.2989L32.6318 36.2162L34.1848 36.6325L40.0596 14.7151L38.5066 14.2989Z" fill="#D51820"/>
<path d="M16.6599 36.4568H6.72656V34.6076C6.72656 30.239 9.13842 27.6877 11.2667 25.4371C13.069 23.5307 14.6254 21.885 14.6254 19.4274C14.6254 16.3809 13.3606 15.9703 12.1244 15.9703C11.5205 15.9703 9.68506 15.9703 9.68506 19.3348V20.8158H8.08402V19.3348C8.08402 16.1796 9.55698 14.3693 12.1244 14.3693C13.9953 14.3693 16.2265 15.2464 16.2265 19.4274C16.2265 22.522 14.2961 24.5622 12.4297 26.5361C10.4135 28.67 8.3276 30.8817 8.3276 34.6076V34.8557H16.6599V36.4568Z" fill="#D51820"/>
<path d="M27.3643 36.5231H25.7633V33.3313H17.001V31.0281L24.447 14.8839H27.3643V31.7303H30.3891V33.3313H27.3643V36.5231ZM18.602 31.7303H25.7633V16.485H25.4716L18.602 31.3792V31.7303Z" fill="#D51820"/>
<path d="M41.4385 14.5477V16.2334H49.4037L43.2534 36.7759H45.0786L51.2654 16.0801L51.2723 16.0561V14.5477H41.4385Z" fill="#D51820"/>
<path d="M53.8316 58.2345L40.5978 51.6176H0V0H57.9989V51.6176H53.8316V58.2345ZM1.60104 50.0165H40.9764L52.2305 55.6442V50.0165H56.3978V1.60104H1.60104V50.0165Z" fill="#D51820"/>
</g>
<defs>
<clipPath id="clip0_956_4226">
<rect width="58" height="58.2333" fill="white"/>
</clipPath>
</defs>
</svg>
