<svg width="58" height="58" viewBox="0 0 58 58" fill="none" xmlns="http://www.w3.org/2000/svg">
<path d="M7.69767 28.1708C7.18523 28.1708 6.65 28.0343 6.11478 27.7612C4.16748 26.7715 2.92621 25.2584 2.41376 23.2675C1.9127 23.1082 1.51413 22.7442 1.2636 22.1867C0.865032 21.3107 0.694216 20.3779 0.751155 19.4222C0.796705 18.7738 1.12695 18.2732 1.6394 18.0457C1.58246 16.9421 1.58246 15.8614 1.94687 14.7806C2.42515 13.3244 3.48421 12.437 4.99878 12.1867C5.18098 12.164 5.34041 12.1412 5.48845 12.1298C5.80731 11.4586 6.43364 11.1287 7.37882 11.1515H7.4927C9.31473 11.2652 10.8521 11.9023 12.0706 13.0627C13.4257 14.3483 13.9837 16.0206 13.7446 18.0343C13.9609 18.1367 14.1204 18.2618 14.2342 18.387C14.5531 18.7283 14.7011 19.2061 14.6784 19.7977C14.6442 20.6054 14.5075 21.3676 14.257 22.0502C14.1317 22.4029 13.7787 23.131 12.9702 23.313C12.3666 25.5314 10.9773 27.09 8.81367 27.9546C8.43788 28.1025 8.07347 28.1708 7.69767 28.1708ZM2.34544 19.4791C2.34544 19.4905 2.34544 19.5019 2.34544 19.5132C2.29989 20.2072 2.42515 20.8784 2.72123 21.5155C2.82372 21.7317 2.90344 21.743 2.94899 21.743C3.18813 21.7544 3.75752 21.8796 3.91695 22.6304C4.26997 24.3028 5.22654 25.5087 6.84359 26.3278C7.35604 26.5895 7.78878 26.635 8.21012 26.4643C9.98661 25.759 11.0571 24.4962 11.4898 22.6077C11.672 21.7772 12.2983 21.7317 12.5489 21.743C12.583 21.743 12.6058 21.743 12.6058 21.743C12.6058 21.743 12.6741 21.6975 12.7424 21.4928C12.936 20.9467 13.0499 20.3665 13.0727 19.718C13.0727 19.5929 13.0613 19.5019 13.0499 19.4677C13.0385 19.4677 13.0044 19.4564 12.9816 19.4564C12.5716 19.445 12.3439 19.2288 12.2528 19.1037C12.1275 18.9444 12.0022 18.6714 12.0933 18.2732C12.1047 18.2504 12.1047 18.2163 12.1047 18.1822C12.1047 18.148 12.1161 18.1139 12.1161 18.0798C12.3666 16.4529 11.9909 15.1788 10.966 14.189C10.0208 13.2903 8.85922 12.8124 7.41298 12.7214C7.39021 12.7214 7.35604 12.7214 7.33327 12.7214C7.00302 12.7101 6.94608 12.7669 6.94608 12.7669C6.94608 12.7669 6.91192 12.8011 6.88914 12.9262C6.86637 13.0513 6.68417 13.6771 5.89841 13.6771C5.88702 13.6771 5.87564 13.6771 5.86425 13.6771C5.68204 13.6771 5.48845 13.6998 5.24931 13.7339C4.30413 13.8818 3.75752 14.3483 3.46144 15.247C3.15397 16.1685 3.18813 17.1469 3.25646 18.2504C3.30201 19.1719 2.72123 19.4108 2.34544 19.4791ZM13.6535 18.6259C13.6535 18.6372 13.6535 18.6372 13.6535 18.6259C13.6535 18.6372 13.6535 18.6372 13.6535 18.6259Z" fill="#D51820"/>
<path d="M1.59428 41.1856H0V31.8682L4.68036 28.4211V26.5212H6.27464V29.2288L1.59428 32.6759V41.1856Z" fill="#D51820"/>
<path d="M50.3339 28.1708C49.8215 28.1708 49.2862 28.0343 48.751 27.7612C46.8037 26.7715 45.5624 25.2584 45.05 23.2675C44.5489 23.1082 44.1504 22.7442 43.8998 22.1867C43.5013 21.3107 43.3304 20.3779 43.3874 19.4222C43.4329 18.7738 43.7632 18.2732 44.2756 18.0457C44.2187 16.9421 44.2187 15.8614 44.5831 14.7806C45.0614 13.3244 46.1204 12.437 47.635 12.1867C47.8172 12.164 47.9766 12.1412 48.1247 12.1298C48.4435 11.4586 49.0699 11.1287 50.0151 11.1515H50.1289C51.951 11.2652 53.4883 11.9023 54.7068 13.0627C56.0619 14.3483 56.6199 16.0206 56.3808 18.0343C56.5972 18.1367 56.7566 18.2618 56.8705 18.387C57.1893 18.7283 57.3374 19.2061 57.3146 19.7977C57.2804 20.6054 57.1438 21.3676 56.8932 22.0502C56.768 22.4029 56.415 23.131 55.6064 23.313C55.0029 25.5314 53.6136 27.09 51.4499 27.9546C51.0741 28.1025 50.6983 28.1708 50.3339 28.1708ZM44.9703 19.4791C44.9703 19.4905 44.9703 19.5019 44.9703 19.5132C44.9247 20.2072 45.05 20.8784 45.3461 21.5155C45.4486 21.7317 45.5283 21.743 45.5738 21.743C45.813 21.7544 46.3824 21.8796 46.5418 22.6304C46.8948 24.3028 47.8514 25.5087 49.4684 26.3278C49.9809 26.5895 50.4136 26.635 50.835 26.4643C52.6115 25.759 53.6819 24.4962 54.1146 22.6077C54.2968 21.7772 54.9232 21.7317 55.1737 21.743C55.2079 21.743 55.2306 21.743 55.2306 21.743C55.2306 21.743 55.299 21.6975 55.3673 21.4928C55.5609 20.9467 55.6748 20.3665 55.6975 19.718C55.6975 19.5929 55.6861 19.5019 55.6748 19.4677C55.6634 19.4677 55.6292 19.4564 55.6064 19.4564C55.1965 19.445 54.9687 19.2288 54.8776 19.1037C54.7524 18.9444 54.6271 18.6714 54.7182 18.2732C54.7296 18.2504 54.7296 18.2163 54.7296 18.1822C54.7296 18.148 54.741 18.1139 54.741 18.0798C54.9915 16.4416 54.6157 15.1788 53.5908 14.189C52.6456 13.2903 51.4841 12.8124 50.0378 12.7214C50.0151 12.7214 49.9809 12.7214 49.9581 12.7214C49.6279 12.7101 49.5709 12.7669 49.5709 12.7669C49.5709 12.7669 49.5368 12.8011 49.514 12.9262C49.4912 13.0513 49.2976 13.6884 48.5119 13.6771C48.3297 13.6771 48.1247 13.6884 47.8742 13.7339C46.929 13.8818 46.3824 14.3483 46.0863 15.247C45.7788 16.1685 45.813 17.1469 45.8813 18.2504C45.9269 19.1719 45.3461 19.4108 44.9703 19.4791ZM56.2783 18.6259C56.2783 18.6372 56.2783 18.6372 56.2783 18.6259C56.2783 18.6372 56.2783 18.6372 56.2783 18.6259ZM55.6634 17.875C55.6748 17.875 55.6748 17.875 55.6634 17.875C55.6748 17.875 55.6748 17.875 55.6634 17.875Z" fill="#D51820"/>
<path d="M57.9985 41.1856H56.4042V32.6759L51.7239 29.2288V26.5212H53.3182V28.4211L57.9985 31.8682V41.1856Z" fill="#D51820"/>
<path d="M28.9142 27.3517C28.0942 27.3517 27.2516 27.1469 26.3861 26.7373C22.9584 25.1219 20.8175 22.6076 20.0203 19.2629C19.1435 19.1264 18.4374 18.5803 18.0047 17.693C17.3214 16.305 17.0367 14.8261 17.1279 13.313C17.1962 12.2891 17.7883 11.561 18.7449 11.3335C18.631 9.39944 18.5855 7.52231 19.2346 5.66793C20.0203 3.41537 21.6943 2.09568 24.1882 1.72026C24.6438 1.652 25.0423 1.61787 25.4067 1.60649C26.0331 -0.0431104 27.6729 -0.00898083 28.322 0.00239574C28.3448 0.00239574 28.3675 0.00239574 28.4017 0.00239574H28.4814H28.5042C31.6358 0.184421 34.1753 1.17418 36.2706 3.02856C38.6393 5.13323 39.5731 7.92049 39.0265 11.3107C39.482 11.4131 39.8578 11.6179 40.1425 11.9364C40.5752 12.4029 40.7802 13.0627 40.7346 13.8818C40.6777 15.1787 40.4272 16.396 40.0058 17.4996C39.7553 18.1594 39.1403 19.206 37.7852 19.2971C36.8172 23.0172 34.4144 25.6224 30.6337 27.0331C30.0757 27.2493 29.5063 27.3517 28.9142 27.3517ZM25.6345 3.19921C25.2815 3.19921 24.8943 3.23334 24.4274 3.3016C22.5029 3.58601 21.3299 4.50752 20.7378 6.20262C20.1684 7.8181 20.2253 9.51321 20.3392 11.3903C20.362 11.7089 20.4189 12.6873 19.189 12.8693C18.9043 12.9148 18.7335 13.0058 18.7107 13.4154C18.631 14.6554 18.8702 15.85 19.4282 16.9876C19.7243 17.5906 20.1001 17.6816 20.362 17.7043C20.7947 17.7271 21.3413 17.9319 21.5235 18.7624C22.1954 21.7203 23.9947 23.8591 27.058 25.3039C28.1512 25.8158 29.1305 25.8955 30.0529 25.5542C33.4237 24.2914 35.4507 22.0616 36.2706 18.7396C36.4415 18.0229 36.8628 17.6816 37.5119 17.7157C37.8308 17.7385 38.2066 17.693 38.5026 16.9307C38.8784 15.9751 39.072 14.9512 39.129 13.8135C39.1403 13.4381 39.0834 13.1537 38.9581 13.0172C38.8557 12.9034 38.6507 12.8352 38.366 12.8238C37.9105 12.8124 37.6599 12.5963 37.5233 12.4256C37.3866 12.255 37.25 11.9478 37.3639 11.4814C37.3752 11.4358 37.3866 11.3676 37.398 11.2993C37.4094 11.2538 37.4094 11.1969 37.4208 11.1514C37.9105 8.25041 37.1817 5.98647 35.1888 4.2231C33.4009 2.61901 31.1803 1.76576 28.4359 1.59512H28.4131C28.3675 1.59512 28.3334 1.59512 28.2878 1.59512C27.206 1.57236 26.9782 1.79989 26.853 2.36872C26.796 2.61901 26.5683 3.19921 25.6914 3.19921C25.6687 3.19921 25.6459 3.19921 25.6345 3.19921Z" fill="#D51820"/>
<path d="M53.1586 58L47.8064 34.0068C44.8456 32.8692 33.902 28.7395 33.7881 28.694L33.2756 28.5006V24.041H34.8699V27.397C37.2158 28.2844 46.8498 31.9249 48.7857 32.6758L49.1843 32.835L54.7187 57.6587L53.1586 58Z" fill="#D51820"/>
<path d="M4.96613 58L3.40601 57.6587L8.92906 32.835L9.32763 32.6758C11.2635 31.9249 20.9203 28.2844 23.2662 27.397V24.041H24.8605V28.5006L24.3481 28.694C24.2342 28.7395 13.2678 32.8692 10.307 34.0068L4.96613 58Z" fill="#D51820"/>
<path d="M17.231 48.7281H15.6367V57.8294H17.231V48.7281Z" fill="#D51820"/>
<path d="M40.7456 48.7281H39.1514V57.8294H40.7456V48.7281Z" fill="#D51820"/>
<path d="M28.9144 37.1923L23.3914 28.3755L24.7351 27.5336L28.9486 34.2458L33.4012 27.5109L34.7335 28.3982L28.9144 37.1923Z" fill="#D51820"/>
</svg>
