<svg width="57" height="58" viewBox="0 0 57 58" fill="none" xmlns="http://www.w3.org/2000/svg">
<g clip-path="url(#clip0_956_4282)">
<path d="M48.2505 8.28929C42.9044 2.94316 35.7978 0 28.2386 0C21.5528 0 15.0649 2.37454 9.96898 6.68693C4.93559 10.9459 1.53071 16.8436 0.379836 23.2973C0.335484 23.5043 0 25.1817 0 28.3C0 32.8683 1.11449 37.4081 3.22292 41.4271C5.26311 45.3164 8.23129 48.7293 11.8067 51.2983L12.0149 51.4473H44.5249L44.733 51.2983C48.3085 48.7293 51.2767 45.3164 53.3169 41.4271C55.4253 37.4081 56.5398 32.8683 56.5398 28.3C56.5398 20.7408 53.5955 13.6343 48.2505 8.28929ZM44.0098 49.8563H12.5289C5.67593 44.832 1.59213 36.7929 1.59213 28.3C1.59213 25.2318 1.93443 23.6397 1.93784 23.6249L1.94467 23.5908C4.21231 10.8435 15.2708 1.59213 28.2386 1.59213C42.9658 1.59213 54.9465 13.5729 54.9465 28.3C54.9465 36.7929 50.8627 44.832 44.0098 49.8551V49.8563Z" fill="#D51820"/>
<path d="M28.2533 5.95336V7.54548C34.7867 7.54548 40.9483 10.6388 44.8626 15.8518L43.6606 17.1528C42.0718 14.8988 39.9964 13.0065 37.6002 11.6361C34.7754 10.0212 31.5524 9.16718 28.2795 9.16718C17.9125 9.16718 9.47876 17.602 9.47876 27.969H11.0709C11.0709 18.48 18.7904 10.7593 28.2795 10.7593C34.0612 10.7593 39.3414 13.5842 42.5518 18.3526L30.5085 31.3842C29.8944 30.9167 29.129 30.6381 28.3 30.6381C26.2871 30.6381 24.6494 32.2757 24.6494 34.2886C24.6494 36.3015 26.2871 37.9392 28.3 37.9392C30.3129 37.9392 31.9505 36.3015 31.9505 34.2886C31.9505 33.6848 31.8015 33.115 31.5411 32.6124L46.9108 15.9815L46.5412 15.4549C42.355 9.50607 35.518 5.95336 28.2533 5.95336ZM28.3 36.347C27.165 36.347 26.2416 35.4236 26.2416 34.2886C26.2416 33.1537 27.165 32.2303 28.3 32.2303C29.4349 32.2303 30.3584 33.1537 30.3584 34.2886C30.3584 35.4236 29.4349 36.347 28.3 36.347Z" fill="#D51820"/>
<path d="M38.6045 41.2212H17.9944V42.8133H38.6045V41.2212Z" fill="#D51820"/>
<path d="M34.8982 44.7023H21.7029V46.2944H34.8982V44.7023Z" fill="#D51820"/>
<path d="M52.4161 56.4078H3.93018V57.9999H52.4161V56.4078Z" fill="#D51820"/>
</g>
<defs>
<clipPath id="clip0_956_4282">
<rect width="56.5387" height="58" fill="white"/>
</clipPath>
</defs>
</svg>
