<svg width="58" height="58" viewBox="0 0 58 58" fill="none" xmlns="http://www.w3.org/2000/svg">
<path d="M57.2395 53.437H44.5282V51.8456H55.648V1.59147H1.59147V51.8456H12.4578V53.437H0V0H57.2395V53.437Z" fill="#D51820"/>
<path d="M48.873 28.8102H47.2816V21.2393H9.95817V28.8102H8.3667V19.6478H48.873V28.8102Z" fill="#D51820"/>
<path d="M45.3241 58H11.9158V20.5697H13.5072V56.4085H43.7327V20.5697H45.3241V58Z" fill="#D51820"/>
<path d="M6.75358 5.95778H5.48608V7.54925H6.75358V5.95778Z" fill="#D51820"/>
<path d="M12.965 5.95778H8.78174V7.54925H12.965V5.95778Z" fill="#D51820"/>
<path d="M29.8608 27.3676H28.2693V29.9117H29.8608V27.3676Z" fill="#D51820"/>
<path d="M29.8608 47.1155H28.2693V49.796H29.8608V47.1155Z" fill="#D51820"/>
<path d="M29.0732 47.7452C25.3128 47.7452 22.7869 45.6729 22.7869 42.5889H24.3783C24.3783 44.7874 26.1778 46.1537 29.0732 46.1537C31.9685 46.1537 33.5748 44.8874 33.5748 42.5889C33.5748 40.6166 31.2717 39.5526 28.8333 38.4272C26.2802 37.2483 23.6406 36.0286 23.6406 33.4686C23.6406 30.9086 26.5075 29.4581 29.1641 29.4581C32.3641 29.4581 34.6877 31.1553 34.6877 33.4936V33.9426H33.0962V33.4936C33.0962 32.0772 31.4422 31.0496 29.1641 31.0496C27.0702 31.0496 25.232 32.1795 25.232 33.4686C25.232 35.01 27.3055 35.9683 29.5006 36.9823C32.1561 38.2089 35.1662 39.5992 35.1662 42.5889C35.1662 45.8173 32.8882 47.7452 29.0732 47.7452Z" fill="#D51820"/>
</svg>
