<svg width="250" height="39" viewBox="0 0 250 39" fill="none" xmlns="http://www.w3.org/2000/svg">
<path d="M137.796 5.01215V38.5158" stroke="#888888" stroke-width="0.429271"/>
<path fill-rule="evenodd" clip-rule="evenodd" d="M71.372 12.4894L67.7838 5H55.5116L63.0537 19.9793L71.372 12.4894Z" fill="#FEFEFE"/>
<path fill-rule="evenodd" clip-rule="evenodd" d="M83.6248 35.8164L76.675 21.0317L88.6825 7.13747L83.6248 35.8164ZM99.6118 5H78.7581L50.2247 38.4832H61.5908L69.0469 29.5893L73.158 38.4832H92.7447L95.3752 23.5636L97.7511 31.8008L104.855 23.2474L99.6118 5Z" fill="#FEFEFE"/>
<path fill-rule="evenodd" clip-rule="evenodd" d="M117.434 5L98.6872 33.9233H108.092L115.229 22.605L112.473 38.4832H121.956L127.765 5H117.434Z" fill="#FEFEFE"/>
<path fill-rule="evenodd" clip-rule="evenodd" d="M15.2464 6.22264C15.1083 7.67551 14.8751 9.38358 15.0311 10.9306C15.253 13.1488 16.6403 14.285 18.4555 14.9932C19.0038 15.2068 19.8025 15.5226 20.5232 15.3641C20.8564 15.2895 21.0864 15.0656 21.2948 14.9321C21.9081 14.5425 22.6674 14.1811 23.578 14.0709C24.9416 13.9058 26.2342 14.2552 27.2493 14.5322C28.2158 14.7978 29.4799 15.1827 30.3013 15.6707C30.7534 15.9377 31.0795 16.3422 31.3207 16.7493C31.7412 17.4543 31.9116 18.66 32.8637 18.8707C33.0959 17.9024 32.9086 16.8311 32.9569 15.7617C32.9992 14.7777 33.1785 13.7784 33.3573 12.9022C33.6149 11.6342 33.9784 10.2715 34.3753 9.02388C34.4368 8.8304 34.6153 7.83942 34.9932 7.97837C35.1578 8.03951 35.1221 8.44543 35.1152 8.65557C35.0928 9.47832 35.0254 10.0826 34.9618 10.9013C34.8035 12.9249 34.7788 15.1778 35.1469 16.9028C35.346 17.8361 35.5694 18.728 35.4865 19.7951C35.4652 20.0678 35.3227 20.385 35.2701 20.6859C35.2266 20.9371 35.2692 21.1432 35.2085 21.3349C35.1152 21.6266 34.8674 21.9975 34.6536 22.3179C34.5986 22.3985 34.4961 22.5897 34.3753 22.8114C34.2685 23.0037 34.0869 23.0999 34.0981 23.3022C34.1119 23.6146 34.7296 24.226 35.0539 24.3179C36.434 24.7072 37.9623 24.9139 38.7866 25.7329C39.273 26.216 39.6632 26.8401 39.7429 27.7033C39.8126 28.4362 39.5668 29.0488 39.2799 29.7031C39.085 30.1483 38.8999 31.2432 38.5713 31.4568C38.3281 31.6158 37.932 31.5171 37.6451 31.6741C37.5576 32.0654 37.3728 32.3642 37.3368 32.8109C37.1023 33.1405 36.7546 33.3564 36.5048 33.6716C36.5845 34.3996 36.1257 34.5873 35.5167 34.6275C33.7144 36.0942 30.132 35.1241 28.6058 34.1346C27.8503 34.6726 27.0081 35.1241 27.0956 36.5044C27.7458 36.869 28.2584 37.293 29.0386 37.5493C30.0661 37.8924 31.3319 37.7081 32.0002 38.319C32.0529 38.368 32.1033 38.4283 32.1551 38.4832H37.3187L51.987 21.4885L43.9718 5H15.3463C15.3146 5.42171 15.2856 5.82562 15.2464 6.22264Z" fill="#EC2224"/>
<path fill-rule="evenodd" clip-rule="evenodd" d="M1.69885 38.319C2.64175 37.3455 4.01067 36.6755 5.34239 36.1039C6.38051 35.6578 7.44442 35.2751 8.26279 34.6278C8.62553 34.3393 8.91033 34.0407 9.32992 33.9793C10.1565 33.8639 10.959 34.2195 11.5931 34.3502C13.304 34.705 14.6111 33.8676 15.4561 32.9949C15.8859 32.5534 16.433 32.1256 16.6806 31.5173C16.9923 30.7566 16.8543 29.8015 16.8681 28.8421C16.8986 26.9213 17.6021 25.5706 17.6223 23.7956C17.6337 22.885 17.4078 21.987 17.5291 21.0555C16.5516 20.5634 15.4195 20.0906 14.6386 19.2415C13.8791 18.4138 12.9989 16.8702 13.2571 15.5178C12.6772 14.6445 12.1636 13.4546 12.1577 12.0703C12.151 10.7042 12.5732 9.56304 12.9433 8.31513C13.2673 7.22253 13.5929 6.11586 13.9389 5H7.38347L0 38.4832H1.55733C1.60509 38.4295 1.64846 38.3718 1.69885 38.319Z" fill="#EC2224"/>
<path d="M171.357 13.4607H173.62L173.355 20.6851H173.385L175.669 13.4607H177.932L176.152 23.5536H174.653L176 15.9126H175.97L173.47 23.5536H172.144L172.337 15.9126H172.307L170.961 23.5536H169.577L171.357 13.4607Z" fill="white"/>
<path d="M180.469 13.4607H182.617L182.481 23.5536H180.895L180.959 21.5484L180.954 21.5783H179.152L178.516 23.5536H177.045L180.469 13.4607ZM181.01 20.2085L181.182 15.2196H181.152L179.58 20.2085H181.007H181.01Z" fill="white"/>
<path d="M185.152 13.4607H187.141L187.618 19.5017H187.648L188.714 13.4607H190.127L188.347 23.5536H186.717L186.114 16.1865H186.084L184.786 23.5536H183.372L185.152 13.4607Z" fill="white"/>
<path d="M191.48 13.4607H193.469L193.946 19.5017H193.976L195.042 13.4607H196.455L194.675 23.5536H193.046L192.442 16.1865H192.412L191.114 23.5536H189.7L191.48 13.4607Z" fill="white"/>
<path d="M198.241 19.2577L197.346 13.4607H199.033L199.461 17.1673H199.491L201.225 13.4607H202.767L199.827 19.2577L199.07 23.5536H197.484L198.241 19.2577Z" fill="white"/>
<path d="M206.373 13.4607H208.71C209.497 13.4607 210.052 13.6725 210.372 14.0961C210.692 14.5197 210.779 15.139 210.634 15.9563L210.459 16.9509C210.314 17.7681 210.008 18.3874 209.541 18.8111C209.071 19.2347 208.443 19.4465 207.655 19.4465H206.905L206.18 23.5559H204.593L206.373 13.463V13.4607ZM207.909 18.003C208.169 18.003 208.376 17.9316 208.53 17.7866C208.684 17.6415 208.793 17.3975 208.855 17.0522L209.067 15.855C209.129 15.5097 209.106 15.2633 209.002 15.1206C208.898 14.9756 208.717 14.9042 208.456 14.9042H207.706L207.16 18.003H207.911H207.909Z" fill="white"/>
<path d="M213.096 13.4377H215.244L215.108 23.5306H213.522L213.586 21.5254L213.582 21.5553H211.779L211.144 23.5306H209.672L213.096 13.4377ZM213.637 20.1855L213.81 15.1966H213.78L212.207 20.1855H213.635H213.637Z" fill="white"/>
<path d="M216.786 23.0264C216.464 22.5936 216.371 21.9835 216.51 21.1961L217.465 15.7744C217.603 14.9871 217.912 14.377 218.386 13.9441C218.86 13.5113 219.477 13.2949 220.237 13.2949C220.997 13.2949 221.538 13.5113 221.86 13.9441C222.182 14.377 222.274 14.9871 222.136 15.7744L221.947 16.8426H220.449L220.656 15.6754C220.766 15.0515 220.557 14.7384 220.027 14.7384C219.498 14.7384 219.18 15.0515 219.07 15.6754L218.075 21.3136C217.967 21.9283 218.176 22.2368 218.706 22.2368C219.235 22.2368 219.553 21.9306 219.661 21.3136L219.933 19.7711H221.432L221.181 21.1984C221.043 21.9858 220.734 22.5959 220.26 23.0287C219.786 23.4615 219.166 23.6779 218.409 23.6779C217.651 23.6779 217.108 23.4615 216.786 23.0287V23.0264Z" fill="white"/>
<path d="M225.504 23.5007C225.186 23.6158 224.825 23.6734 224.422 23.6734C223.644 23.6734 223.087 23.4524 222.75 23.0103C222.414 22.5683 222.318 21.9444 222.46 21.1363L223.395 15.8297C223.538 15.0216 223.853 14.3977 224.346 13.9557C224.836 13.5137 225.472 13.2927 226.252 13.2927C227.033 13.2927 227.587 13.5137 227.924 13.9557C228.26 14.3977 228.356 15.0216 228.214 15.8297L227.279 21.1363C227.162 21.8086 226.913 22.3611 226.54 22.7939C226.581 22.8906 226.641 22.9528 226.724 22.9804C226.805 23.0103 226.927 23.0242 227.092 23.0242H227.336L227.081 24.4653H226.662C225.941 24.4653 225.557 24.143 225.506 23.4984L225.504 23.5007ZM225.672 21.2376L226.644 15.7284C226.761 15.0654 226.545 14.7339 225.997 14.7339C225.449 14.7339 225.117 15.0654 225 15.7284L224.028 21.2376C223.911 21.9007 224.127 22.2322 224.675 22.2322C225.223 22.2322 225.555 21.9007 225.672 21.2376Z" fill="white"/>
<path d="M229.022 23.0195C228.695 22.5821 228.603 21.9559 228.748 21.1386L230.107 13.4399H231.693L230.314 21.2537C230.252 21.599 230.277 21.85 230.39 22.0042C230.503 22.1585 230.689 22.2344 230.947 22.2344C231.205 22.2344 231.419 22.1585 231.587 22.0042C231.753 21.85 231.868 21.6013 231.928 21.2537L233.307 13.4399H234.835L233.477 21.1386C233.332 21.9559 233.021 22.5821 232.54 23.0195C232.059 23.4569 231.435 23.6756 230.666 23.6756C229.897 23.6756 229.349 23.4569 229.022 23.0195Z" fill="white"/>
<path d="M236.314 13.4377H237.9L236.12 23.5306H234.534L236.314 13.4377Z" fill="white"/>
<path d="M240.799 13.4377H242.947L242.811 23.5306H241.225L241.289 21.5254L241.285 21.5553H239.482L238.847 23.5306H237.375L240.799 13.4377ZM241.34 20.1855L241.513 15.1966H241.483L239.91 20.1855H241.338H241.34Z" fill="white"/>
<path d="M244.473 23.0103C244.137 22.5683 244.04 21.9444 244.183 21.1363L245.118 15.8297C245.26 15.0216 245.576 14.3977 246.068 13.9557C246.559 13.5137 247.194 13.2927 247.975 13.2927C248.755 13.2927 249.31 13.5137 249.646 13.9557C249.982 14.3977 250.079 15.0216 249.936 15.8297L249.001 21.1363C248.859 21.9444 248.543 22.5683 248.051 23.0103C247.56 23.4524 246.925 23.6734 246.147 23.6734C245.369 23.6734 244.811 23.4524 244.475 23.0103H244.473ZM247.395 21.2376L248.366 15.7284C248.483 15.0654 248.267 14.7339 247.719 14.7339C247.171 14.7339 246.84 15.0654 246.722 15.7284L245.751 21.2376C245.633 21.9007 245.85 22.2322 246.398 22.2322C246.946 22.2322 247.277 21.9007 247.395 21.2376Z" fill="white"/>
<path d="M163.492 8.53391C163.462 8.63521 163.423 8.73651 163.485 8.84011C163.533 8.94831 163.582 9.05651 163.632 9.16242C163.657 9.21537 163.736 9.3558 163.731 9.58372C163.731 9.58372 163.731 9.62516 163.708 9.65509C163.715 9.64819 163.756 9.64358 163.763 9.63667C163.784 9.61135 163.821 9.58603 163.819 9.563C163.814 9.49394 163.8 9.42487 163.789 9.3558C163.784 9.32818 163.775 9.30055 163.763 9.27292C163.708 9.144 163.639 8.95522 163.614 8.88155C163.607 8.86083 163.602 8.84011 163.602 8.81939L163.598 8.74111C163.598 8.74111 163.605 8.72499 163.614 8.7273L163.842 8.77104L163.881 8.78485L164.035 8.79867C164.063 8.79867 164.09 8.79636 164.118 8.79406C164.118 8.79406 164.447 8.75953 164.601 8.71579C164.717 8.68355 164.839 8.68125 164.958 8.66283C165.133 8.63521 165.306 8.60528 165.479 8.57305C165.605 8.55003 165.732 8.5247 165.854 8.48787C166.013 8.43722 166.167 8.37045 166.323 8.3152C166.413 8.28297 166.505 8.25304 166.6 8.23923C166.943 8.18628 167.274 8.09188 167.608 7.99749C167.921 7.90771 168.239 7.83404 168.554 7.75116C168.584 7.74425 168.616 7.73734 168.646 7.73044L169.07 7.68209C169.243 7.67979 169.415 7.67518 169.588 7.67288C169.611 7.64065 169.639 7.60842 169.669 7.57619C169.834 7.58309 169.662 7.33445 169.844 7.36668C169.86 7.36668 169.88 7.36668 169.89 7.35978C170.035 7.24467 170.207 7.24236 170.382 7.23316C170.53 7.22625 170.677 7.1802 170.824 7.16639C170.916 7.15718 171.013 7.1756 171.107 7.18251L171.165 7.1733C171.183 7.16639 171.2 7.16179 171.218 7.15488C171.294 7.08581 171.363 7.00984 171.446 6.94768C171.51 6.89933 171.586 6.84868 171.662 6.83487C171.955 6.78422 172.249 6.74048 172.544 6.70825C172.846 6.67602 173.154 6.68523 173.453 6.63918C173.806 6.58623 174.128 6.67371 174.446 6.79803C174.586 6.85329 174.729 6.92696 174.844 7.02135C174.952 7.11114 175.028 7.24006 175.116 7.35287C175.27 7.55316 175.362 7.78339 175.41 8.02742C175.438 8.16325 175.436 8.30369 175.401 8.43722C175.348 8.63751 175.249 8.82399 175.169 9.01738C175.164 9.02659 175.15 9.02889 175.141 9.03579C175.132 9.05651 175.118 9.08644 175.106 9.10716C175.049 9.15781 174.994 9.20846 174.936 9.25911C174.858 9.32587 174.78 9.39264 174.701 9.4594C174.687 9.47091 174.674 9.48012 174.657 9.48703C174.556 9.53307 174.453 9.57451 174.349 9.62056C174.156 9.76099 173.976 9.90373 173.711 9.92215C173.375 9.94517 173.074 9.8715 172.763 9.75869C172.519 9.67121 172.367 9.46401 172.118 9.39034C172.015 9.36041 171.92 9.30976 171.842 9.23609C171.791 9.18774 171.708 9.16932 171.655 9.12098C171.602 9.07033 171.55 9.06572 171.487 9.08644C171.469 9.09565 171.451 9.10947 171.43 9.11407C171.317 9.13479 171.204 9.1486 171.091 9.17163C170.884 9.21307 170.677 9.25911 170.472 9.30285C170.421 9.35811 170.242 9.36501 170.189 9.30746C169.917 9.144 169.53 9.52847 169.266 9.63207C168.84 9.86459 168.313 9.83697 167.845 9.92906C167.152 9.98201 166.478 10.1915 165.799 10.3296C165.018 10.5046 164.323 10.919 163.506 10.9397C163.105 10.8753 163.427 11.3564 162.856 11.3173C162.697 11.2874 162.488 11.3104 162.331 11.2459C162.315 11.3012 162.267 11.4301 162.265 11.4623C162.255 11.7616 162.246 12.0609 162.237 12.3602C162.228 12.5052 162.216 12.648 162.207 12.793C162.202 12.8621 162.196 12.8575 162.189 12.9265C162.193 12.9542 162.117 13.0325 162.097 13.0486C161.809 13.2535 161.56 13.5873 161.385 13.8958C161.376 13.9096 161.422 13.9257 161.406 13.9372C161.355 14.0431 161.307 14.1513 161.254 14.2549C161.309 14.1513 161.355 14.0431 161.406 13.9372C161.42 13.9257 161.44 13.9165 161.447 13.9027C161.622 13.5919 161.862 13.3433 162.15 13.1384C162.17 13.1245 162.331 12.9795 162.398 12.9265C162.41 12.9219 162.421 12.9173 162.433 12.9104C162.44 12.9081 162.444 12.9058 162.451 12.9012C162.55 12.869 162.651 12.8368 162.75 12.8045L162.824 12.793C162.877 12.7884 162.928 12.7838 162.981 12.7815C163.008 12.7769 163.036 12.7723 163.064 12.7677L163.098 12.7562C163.116 12.7401 163.135 12.724 163.153 12.7101C163.179 12.694 163.204 12.6779 163.229 12.6618C163.296 12.5559 163.407 12.5398 163.515 12.5306C163.572 12.526 163.793 12.6871 163.855 12.7562C164.042 12.9634 164.291 13.0762 164.521 13.2189C164.613 13.2765 164.691 13.3548 164.776 13.4215C164.797 13.4376 165.06 13.7024 165.147 13.8474C165.241 14.0086 165.35 14.1651 165.414 14.3378C165.527 14.6417 165.557 14.9617 165.508 15.2817C165.497 15.36 165.444 15.4314 165.409 15.5073C165.343 15.5764 165.281 15.6547 165.205 15.7145C165.126 15.7767 165.037 15.832 164.947 15.8757C164.852 15.9217 164.749 15.954 164.652 15.9931C164.316 16.1335 163.987 16.2924 163.676 16.4881C163.473 16.617 163.248 16.7068 163.029 16.8104C162.997 16.8265 162.955 16.8219 162.918 16.8265C162.796 16.8657 162.672 16.9048 162.55 16.9439C162.449 17.0544 162.352 17.1695 162.242 17.2708C162.143 17.3652 162.037 17.4527 161.924 17.531C161.809 17.6093 161.514 17.4942 161.5 17.4504C161.5 17.4504 161.302 17.5978 161.247 17.5839C161.222 17.5885 161.199 17.5955 161.173 17.6001C161.173 17.6001 161.176 17.7474 161.111 17.7819C161.127 17.7704 161.139 17.7566 161.15 17.7451C161.139 17.7589 161.127 17.7704 161.111 17.7819C161.097 17.7865 161.077 17.7888 161.07 17.798C160.619 18.491 158.719 19.5408 158.719 19.5408C158.719 19.5408 158.816 19.9737 158.786 20.0796C158.772 20.1256 158.735 20.1647 158.765 20.2246L158.579 20.5492H158.574C158.454 20.6896 158.337 20.8324 158.217 20.9728C158.194 21.0004 158.167 21.0212 158.139 21.0442C158.052 21.1317 157.964 21.2192 157.877 21.3066L157.854 21.4217C158.029 21.8269 158.332 22.1493 158.553 22.5245C158.648 22.6834 158.717 22.8583 158.793 23.0287C158.89 23.252 158.979 23.4776 159.076 23.7009C159.196 23.9795 159.318 24.2558 159.442 24.532C159.477 24.608 159.52 24.6817 159.56 24.7554C159.573 24.7669 159.594 24.7738 159.601 24.7899C159.642 24.8843 159.679 24.9787 159.716 25.0731C159.721 25.0869 159.716 25.1076 159.714 25.126C159.751 25.225 159.787 25.3263 159.827 25.423C159.889 25.5727 159.969 25.7154 160.015 25.8696C160.066 26.0446 160.087 26.2265 160.119 26.4061C160.13 26.4728 160.133 26.5396 160.14 26.6064C160.174 26.9172 160.064 27.1934 159.935 27.4651C159.843 27.6562 159.744 27.8426 159.656 28.036C159.578 28.2064 159.516 28.3837 159.44 28.554C159.394 28.6576 159.322 28.752 159.292 28.8579C159.244 29.0283 158.431 31.639 158.284 32.2606C158.254 32.3251 158.215 32.3987 158.222 32.4632C158.245 32.7303 158.171 32.9835 158.114 33.2344C158.065 33.437 157.983 33.6327 157.916 33.833C157.907 33.8653 157.902 33.8975 157.909 33.9297C157.941 34.1231 157.867 34.3073 157.856 34.4938C157.844 34.6848 157.824 34.8782 157.902 35.0716C157.985 35.2788 158.084 35.4653 158.222 35.6403C158.312 35.7554 158.367 35.8981 158.429 36.0316C158.565 36.324 158.786 36.5243 159.074 36.6625C159.214 36.7292 159.359 36.7545 159.511 36.7661C159.645 36.7776 159.778 36.8052 159.912 36.8236C160.008 36.8374 160.107 36.8443 160.204 36.8604C160.354 36.8858 160.485 36.9387 160.607 37.0446C160.681 37.1068 160.747 37.1597 160.777 37.2495C160.789 37.2818 160.805 37.3163 160.803 37.3485C160.794 37.4913 160.812 37.6501 160.754 37.7698C160.697 37.8918 160.577 38.0047 160.457 38.0737C160.216 38.2119 159.944 38.2211 159.67 38.1865C159.606 38.1773 159.534 38.2072 159.467 38.2211C159.223 38.2763 158.977 38.2556 158.733 38.2602C158.473 38.2648 158.21 38.2832 157.95 38.2763C157.759 38.2717 157.568 38.2211 157.377 38.2165C157.188 38.2119 157.046 38.0898 156.871 38.0553C156.799 38.0415 156.735 37.9954 156.668 37.9655C156.592 37.9448 156.516 37.9287 156.445 37.8987C156.339 37.8573 156.233 37.8067 156.129 37.7583C156.106 37.7468 156.088 37.7307 156.067 37.7146C155.878 37.6248 155.689 37.535 155.501 37.4452C155.379 37.4199 155.266 37.3761 155.19 37.2702C155.047 37.215 154.921 37.139 154.819 37.0216C154.746 36.9364 154.709 36.8489 154.723 36.7315C154.734 36.6325 154.723 36.5312 154.723 36.4299C154.723 36.4069 154.718 36.3816 154.725 36.3632C154.817 36.1306 154.907 35.8981 155.008 35.6702C155.109 35.44 155.222 35.2144 155.328 34.9864C155.353 34.9312 155.369 34.8782 155.413 34.8299C155.445 34.7954 155.448 34.7286 155.455 34.6756C155.464 34.5882 155.464 34.4984 155.471 34.4086C155.473 34.381 155.494 34.3533 155.498 34.3257C155.515 34.2451 155.533 34.1645 155.538 34.084C155.544 33.9458 155.544 33.8123 155.574 33.6742C155.609 33.5222 155.593 33.3588 155.641 33.2137C155.708 33.0134 155.694 32.7671 155.864 32.6221C155.938 32.5599 156.005 32.5852 156.005 32.5852C156.005 32.5852 156.109 32.3182 156.106 32.18C156.12 32.134 155.934 30.557 156.29 28.9984C156.311 28.9063 156.336 28.8165 156.366 28.7267C156.422 28.5632 156.479 28.3998 156.541 28.2386C156.571 28.1604 156.606 28.0844 156.643 28.0084C156.774 27.746 156.919 27.4904 157.052 27.228C157.08 27.1704 157.089 27.1036 157.108 27.0415H156.725C156.7 27.0415 156.675 27.0415 156.65 27.0415C156.433 27.03 156.214 27.0254 156 27.0023C155.726 26.9724 155.455 26.9241 155.181 26.8872C155.107 26.878 155.033 26.8872 154.957 26.8872C154.932 26.8849 154.907 26.8826 154.881 26.8803C154.72 26.8734 154.561 26.8688 154.403 26.8573C154.258 26.8458 153.834 26.8205 153.834 26.8205C153.834 26.8205 153.825 26.7053 153.813 26.6133C153.799 26.4958 153.758 25.5082 153.758 25.5082L153.71 26.2725C153.71 26.2725 153.615 26.4337 153.555 26.5143C153.479 26.6179 153.401 26.7261 153.353 26.8435C153.268 27.0576 153.097 27.2026 152.952 27.3684C152.842 27.495 152.729 27.6216 152.625 27.7506C152.485 27.9255 152.358 28.1143 152.209 28.2847C152.038 28.4804 151.838 28.6507 151.672 28.8487C151.49 29.0697 151.331 29.3115 151.161 29.5417C151.06 29.6775 150.954 29.8064 150.85 29.94C150.825 29.9745 150.645 30.2508 150.645 30.2508C150.645 30.2508 150.731 30.3406 150.793 30.4004C150.855 30.4626 150.825 30.5316 150.733 30.5869C150.712 30.6007 150.701 30.6283 150.682 30.6444C150.636 30.6905 150.588 30.7342 150.539 30.778C150.445 30.8632 150.351 30.9391 150.328 31.0819C150.316 31.1509 150.242 31.2085 150.196 31.2707C150.164 31.3397 150.13 31.4111 150.097 31.4802C150.051 31.5032 150.01 31.5239 149.966 31.5469C149.939 31.5515 149.913 31.5561 149.886 31.5584L149.81 31.616C149.773 31.6966 149.736 31.7748 149.701 31.8554C149.648 31.982 149.584 32.1087 149.552 32.2399C149.513 32.3918 149.506 32.5507 149.483 32.7072C149.46 32.8546 149.446 33.0042 149.404 33.1447C149.349 33.3357 149.301 33.5268 149.328 33.7294L149.333 33.932C149.326 33.9873 149.326 34.0448 149.31 34.0955C149.278 34.1876 149.296 34.2589 149.372 34.3188C149.476 34.4017 149.572 34.4984 149.697 34.5444C149.757 34.5674 149.807 34.6135 149.83 34.6756C149.872 34.7815 149.876 34.8944 149.869 35.0095C149.863 35.1453 149.731 35.2834 149.596 35.2742C149.347 35.2581 149.096 35.2558 148.852 35.2098C148.675 35.1752 148.477 35.1522 148.334 35.0187C148.223 34.9151 148.111 34.8115 148.044 34.6687C148.021 34.6181 147.979 34.5766 147.943 34.5306C147.814 34.3648 147.77 34.1668 147.728 33.9689C147.673 33.6995 147.641 33.4209 147.553 33.1608C147.445 32.8385 147.259 32.553 147.019 32.3067C146.962 32.2468 146.907 32.1823 146.863 32.1156C146.837 32.0741 146.817 32.0212 146.819 31.9728C146.826 31.8416 146.761 31.692 146.909 31.593C146.902 31.4986 146.966 31.4387 147.024 31.3812C147.141 31.2614 147.266 31.1463 147.39 31.0312C147.434 30.9898 147.484 30.9552 147.53 30.9138C147.745 30.7227 147.989 30.5892 148.267 30.5155C148.329 30.4994 148.387 30.4695 148.447 30.4442C148.576 30.3889 148.668 30.2991 148.73 30.1679C148.797 30.0251 148.898 29.8985 148.96 29.7535C149.128 29.3644 149.287 28.9707 149.444 28.5771C149.469 28.5103 149.48 28.4343 149.48 28.3629C149.478 28.089 149.501 27.8173 149.561 27.5503C149.619 27.2924 149.777 27.0875 149.941 26.8918C150.153 26.6363 150.394 26.4084 150.652 26.1989C150.802 26.0745 150.929 25.9226 151.069 25.7891C151.147 25.7154 151.232 25.6509 151.313 25.5796C151.327 25.5681 151.348 25.5473 151.345 25.5335C151.329 25.4368 151.384 25.3655 151.421 25.2872C151.442 25.2434 151.474 25.1997 151.483 25.1537C151.513 25.0247 151.534 24.8912 151.559 24.7623C151.564 24.73 151.571 24.6955 151.571 24.6633C151.571 24.6172 151.559 24.5689 151.559 24.5228C151.564 24.4146 151.573 24.3087 151.58 24.2005C151.592 24.1107 151.617 24.0187 151.615 23.9289C151.612 23.8552 151.587 23.7815 151.569 23.7056L151.543 23.6365C151.536 23.6227 151.532 23.6112 151.525 23.5973L151.509 23.5582C151.304 23.1553 151.281 22.5729 151.276 22.4025C151.276 22.2183 151.276 21.6243 151.555 21.058C151.589 21.0027 151.624 20.9475 151.656 20.8922C151.748 20.7794 151.921 20.5216 152.001 20.4019C152.038 20.3466 152.031 20.2591 152.059 20.2062C152.657 19.0113 154.432 15.1045 154.499 15.0124C154.536 14.9617 154.55 14.8973 154.582 14.842C154.663 14.7016 154.752 14.5657 154.828 14.423C154.875 14.3332 155.056 13.6955 155.19 13.5021C155.275 13.3801 155.673 12.4224 155.726 12.2888C155.749 12.2336 156.613 11.0019 157.395 10.3596C157.513 10.2629 157.653 10.203 157.78 10.1178C157.87 10.058 158.204 9.87841 158.21 9.86229C158.247 9.77251 158.309 9.71725 158.385 9.67811C158.408 9.6666 158.434 9.662 158.459 9.6666C158.51 9.67351 158.563 9.65279 158.588 9.60675C158.664 9.48703 158.816 9.36501 159.097 9.22458C158.873 8.66974 159.007 8.09649 158.963 7.52093C158.91 6.88782 159.081 6.48263 159.35 5.94161C159.537 5.30389 160.322 5.07367 160.909 5C161.201 5.04374 162.103 5.17727 162.348 5.25094C162.654 5.32461 162.723 5.5226 162.928 5.56174C163.165 5.8265 163.42 6.2409 163.71 6.49184C163.959 6.85559 163.899 7.13876 163.692 7.32755C163.717 7.41043 163.747 7.52784 163.77 7.58309C163.782 7.63374 163.796 7.68669 163.807 7.73734C163.881 7.79029 163.922 7.92152 163.899 8.0067C163.89 8.03893 163.888 8.07577 163.881 8.108C163.853 8.16556 163.835 8.23002 163.798 8.28067C163.756 8.33822 163.697 8.38427 163.646 8.43491C163.632 8.46254 163.616 8.49017 163.6 8.51779C163.582 8.55233 163.533 8.55003 163.517 8.51549M152.374 19.5754C152.374 19.5754 152.367 19.5777 152.365 19.58C152.367 19.58 152.372 19.5754 152.374 19.5754Z" fill="white"/>
<path d="M173.527 33.0687C173.408 32.7441 173.191 32.4908 172.883 32.3067C172.574 32.1225 172.171 32.0304 171.674 32.0304H169.243L168.166 38.5134H169.34L169.706 36.324H170.942C171.444 36.324 171.881 36.2319 172.254 36.0478C172.627 35.8636 172.927 35.6104 173.157 35.2857C173.385 34.9634 173.534 34.5928 173.601 34.1784C173.67 33.764 173.645 33.3956 173.525 33.0733L173.527 33.0687ZM172.406 34.1738C172.369 34.404 172.293 34.6066 172.174 34.7839C172.054 34.9611 171.893 35.0993 171.69 35.2006C171.488 35.3019 171.239 35.3525 170.949 35.3525H169.871L170.263 33.0065H171.338C171.628 33.0065 171.861 33.0549 172.029 33.1539C172.199 33.2529 172.314 33.3887 172.374 33.5614C172.434 33.7363 172.445 33.9389 172.409 34.1715L172.406 34.1738Z" fill="white"/>
<path d="M179.663 33.0111C179.541 32.7003 179.324 32.4586 179.014 32.2859C178.703 32.1133 178.3 32.0281 177.8 32.0281H175.369L174.292 38.5111H175.466L175.862 36.1375H177.054L177.934 38.5111H179.244L178.265 35.9373C178.311 35.9211 178.357 35.905 178.401 35.8866C178.772 35.7208 179.069 35.4837 179.297 35.1798C179.522 34.8759 179.67 34.5168 179.739 34.1024C179.808 33.6857 179.782 33.3242 179.66 33.0111H179.663ZM178.546 34.1024C178.509 34.3326 178.433 34.526 178.318 34.6825C178.203 34.8391 178.044 34.9588 177.846 35.0394C177.648 35.12 177.404 35.1614 177.112 35.1614H176.028L176.387 33.0088H177.462C177.752 33.0088 177.984 33.0526 178.155 33.1377C178.325 33.2229 178.443 33.3472 178.507 33.5107C178.569 33.6719 178.583 33.8699 178.544 34.1024H178.546Z" fill="white"/>
<path d="M186.605 35.3456C186.49 36.0317 186.267 36.6165 185.933 37.1022C185.599 37.588 185.192 37.9587 184.713 38.2142C184.234 38.4698 183.716 38.5987 183.159 38.5987C182.602 38.5987 182.084 38.4629 181.669 38.1912C181.255 37.9195 180.956 37.5305 180.772 37.024C180.587 36.5175 180.555 35.9097 180.673 35.2006C180.785 34.5145 181.011 33.9275 181.345 33.4417C181.679 32.9536 182.088 32.5807 182.57 32.3251C183.051 32.0696 183.573 31.9384 184.133 31.9384C184.692 31.9384 185.203 32.0742 185.615 32.3458C186.027 32.6175 186.324 33.0066 186.509 33.5154C186.691 34.0242 186.723 34.6343 186.605 35.3456ZM185.45 35.2029C185.528 34.724 185.521 34.3189 185.429 33.9896C185.337 33.6604 185.176 33.4118 184.943 33.2437C184.711 33.0757 184.425 32.9928 184.082 32.9928C183.716 32.9928 183.378 33.0849 183.067 33.2667C182.756 33.4486 182.491 33.7157 182.275 34.0656C182.058 34.4155 181.909 34.8415 181.828 35.3433C181.745 35.8245 181.752 36.2297 181.847 36.5566C181.941 36.8835 182.107 37.1299 182.339 37.2956C182.572 37.4614 182.86 37.5443 183.198 37.5443C183.564 37.5443 183.9 37.4545 184.211 37.2726C184.522 37.0907 184.784 36.826 184.998 36.4783C185.215 36.1307 185.364 35.7048 185.447 35.2029H185.45Z" fill="white"/>
<path d="M192.53 32.0281H193.705L193.002 36.2642C192.926 36.7292 192.749 37.1367 192.473 37.4889C192.197 37.8412 191.844 38.1152 191.416 38.3131C190.988 38.5111 190.509 38.6101 189.982 38.6101C189.455 38.6101 189.006 38.5111 188.647 38.3131C188.287 38.1152 188.025 37.8412 187.866 37.4889C187.707 37.1367 187.666 36.7292 187.742 36.2642L188.444 32.0281H189.618L188.932 36.1652C188.888 36.4345 188.909 36.6763 188.994 36.8858C189.079 37.0976 189.22 37.261 189.418 37.3807C189.616 37.5005 189.862 37.5603 190.159 37.5603C190.456 37.5603 190.725 37.5005 190.963 37.3807C191.2 37.261 191.395 37.0953 191.547 36.8858C191.699 36.674 191.798 36.4345 191.842 36.1652L192.528 32.0281H192.53Z" fill="white"/>
<path d="M196.568 38.5111H194.339L195.417 32.0281H197.627C198.272 32.0281 198.806 32.1616 199.229 32.4264C199.653 32.6911 199.952 33.071 200.123 33.5637C200.293 34.0563 200.323 34.6434 200.21 35.3272C200.1 35.9925 199.883 36.5612 199.561 37.0354C199.239 37.5097 198.824 37.8734 198.318 38.1267C197.811 38.3799 197.229 38.5065 196.57 38.5065L196.568 38.5111ZM195.682 37.4959H196.626C197.077 37.4959 197.47 37.4107 197.804 37.238C198.138 37.0653 198.412 36.8098 198.624 36.4691C198.836 36.1283 198.985 35.7047 199.068 35.1982C199.149 34.7125 199.142 34.3119 199.047 33.9942C198.953 33.6765 198.773 33.4393 198.509 33.2828C198.244 33.1262 197.889 33.048 197.452 33.048H196.423L195.682 37.4982V37.4959Z" fill="white"/>
<path d="M207.418 33.8423C207.427 33.5476 207.338 33.3243 207.151 33.1677C206.965 33.0112 206.698 32.9329 206.348 32.9329C206.104 32.9329 205.887 32.9697 205.701 33.0434C205.514 33.1171 205.365 33.2184 205.249 33.345C205.134 33.4716 205.065 33.6166 205.038 33.7778C205.015 33.9136 205.026 34.0287 205.072 34.13C205.118 34.229 205.19 34.3142 205.286 34.381C205.383 34.45 205.491 34.5076 205.615 34.5536C205.74 34.5997 205.864 34.6388 205.991 34.6711L206.573 34.823C206.808 34.8806 207.029 34.9565 207.241 35.0532C207.453 35.1499 207.635 35.2719 207.791 35.4193C207.948 35.5666 208.06 35.7462 208.132 35.9534C208.203 36.1606 208.212 36.4069 208.166 36.6878C208.102 37.0677 207.95 37.4015 207.708 37.6893C207.466 37.977 207.151 38.2027 206.76 38.3638C206.368 38.525 205.912 38.6056 205.394 38.6056C204.876 38.6056 204.467 38.5273 204.121 38.3707C203.776 38.2142 203.525 37.9863 203.366 37.687C203.207 37.3877 203.157 37.0216 203.212 36.5911H204.368C204.345 36.8167 204.381 37.0055 204.48 37.1552C204.579 37.3048 204.72 37.4176 204.906 37.4913C205.093 37.5649 205.307 37.6018 205.553 37.6018C205.8 37.6018 206.039 37.5626 206.246 37.4867C206.453 37.4107 206.622 37.3025 206.755 37.1644C206.886 37.0262 206.967 36.8651 206.997 36.6786C207.027 36.5105 207.001 36.3701 206.923 36.2596C206.845 36.1491 206.723 36.057 206.562 35.981C206.398 35.905 206.207 35.8383 205.982 35.7807L205.275 35.5896C204.766 35.4515 204.381 35.2443 204.119 34.9634C203.857 34.6849 203.762 34.3119 203.836 33.8469C203.9 33.4647 204.061 33.1309 204.317 32.8431C204.573 32.5553 204.893 32.332 205.277 32.1731C205.662 32.0143 206.081 31.9337 206.536 31.9337C206.992 31.9337 207.386 32.0143 207.706 32.1731C208.026 32.3343 208.261 32.5553 208.41 32.8431C208.56 33.1286 208.608 33.4601 208.555 33.8353H207.425L207.418 33.8423Z" fill="white"/>
<path d="M214.645 33.0687C214.526 32.7441 214.309 32.4908 214.001 32.3067C213.692 32.1225 213.289 32.0304 212.792 32.0304H210.361L209.284 38.5134H210.458L210.824 36.324H212.06C212.562 36.324 212.999 36.2319 213.372 36.0478C213.745 35.8636 214.045 35.6104 214.275 35.2857C214.503 34.9634 214.652 34.5928 214.719 34.1784C214.788 33.764 214.763 33.3956 214.643 33.0733L214.645 33.0687ZM213.524 34.1738C213.487 34.404 213.411 34.6066 213.292 34.7839C213.172 34.9611 213.011 35.0993 212.808 35.2006C212.606 35.3019 212.357 35.3525 212.067 35.3525H210.99L211.381 33.0065H212.456C212.746 33.0065 212.979 33.0549 213.147 33.1539C213.317 33.2529 213.432 33.3887 213.492 33.5614C213.552 33.7363 213.563 33.9389 213.527 34.1715L213.524 34.1738Z" fill="white"/>
<path d="M221.84 35.3456C221.725 36.0317 221.501 36.6165 221.168 37.1022C220.834 37.588 220.426 37.9587 219.947 38.2142C219.469 38.4698 218.951 38.5987 218.393 38.5987C217.836 38.5987 217.318 38.4629 216.904 38.1912C216.489 37.9195 216.19 37.5305 216.006 37.024C215.822 36.5175 215.79 35.9097 215.907 35.2006C216.02 34.5145 216.245 33.9275 216.579 33.4417C216.913 32.9536 217.323 32.5807 217.804 32.3251C218.285 32.0696 218.808 31.9384 219.367 31.9384C219.927 31.9384 220.438 32.0742 220.85 32.3458C221.262 32.6175 221.559 33.0066 221.743 33.5154C221.925 34.0242 221.957 34.6343 221.84 35.3456ZM220.684 35.2029C220.762 34.724 220.755 34.3189 220.663 33.9896C220.571 33.6604 220.41 33.4118 220.178 33.2437C219.945 33.0757 219.66 32.9928 219.317 32.9928C218.951 32.9928 218.612 33.0849 218.301 33.2667C217.991 33.4486 217.726 33.7157 217.509 34.0656C217.293 34.4155 217.143 34.8415 217.063 35.3433C216.98 35.8245 216.987 36.2297 217.081 36.5566C217.176 36.8835 217.341 37.1299 217.574 37.2956C217.806 37.4614 218.094 37.5443 218.433 37.5443C218.799 37.5443 219.135 37.4545 219.446 37.2726C219.756 37.0907 220.019 36.826 220.233 36.4783C220.449 36.1307 220.599 35.7048 220.682 35.2029H220.684Z" fill="white"/>
<path d="M229.163 32.0281L228.088 38.5111H227.042L224.726 34.0955H224.674L223.937 38.5111H222.763L223.84 32.0281H224.89L227.211 36.446H227.268L228 32.0281H229.167H229.163Z" fill="white"/>
<path d="M234.117 33.8423C234.126 33.5476 234.037 33.3243 233.85 33.1677C233.664 33.0112 233.397 32.9329 233.047 32.9329C232.803 32.9329 232.586 32.9697 232.4 33.0434C232.213 33.1171 232.064 33.2184 231.948 33.345C231.833 33.4716 231.764 33.6166 231.737 33.7778C231.714 33.9136 231.725 34.0287 231.771 34.13C231.817 34.229 231.889 34.3142 231.985 34.381C232.082 34.45 232.19 34.5076 232.315 34.5536C232.439 34.5997 232.563 34.6388 232.69 34.6711L233.272 34.823C233.507 34.8806 233.728 34.9565 233.94 35.0532C234.152 35.1499 234.334 35.2719 234.49 35.4193C234.647 35.5666 234.759 35.7462 234.831 35.9534C234.902 36.1606 234.911 36.4069 234.865 36.6878C234.801 37.0677 234.649 37.4015 234.407 37.6893C234.165 37.977 233.85 38.2027 233.459 38.3638C233.067 38.525 232.612 38.6056 232.094 38.6056C231.576 38.6056 231.166 38.5273 230.82 38.3707C230.475 38.2142 230.224 37.9863 230.065 37.687C229.906 37.3877 229.856 37.0216 229.911 36.5911H231.067C231.044 36.8167 231.081 37.0055 231.18 37.1552C231.279 37.3048 231.419 37.4176 231.605 37.4913C231.792 37.5649 232.006 37.6018 232.252 37.6018C232.499 37.6018 232.738 37.5626 232.945 37.4867C233.153 37.4107 233.321 37.3025 233.454 37.1644C233.585 37.0262 233.666 36.8651 233.696 36.6786C233.726 36.5105 233.7 36.3701 233.622 36.2596C233.544 36.1491 233.422 36.057 233.261 35.981C233.097 35.905 232.906 35.8383 232.681 35.7807L231.974 35.5896C231.465 35.4515 231.081 35.2443 230.818 34.9634C230.556 34.6849 230.461 34.3119 230.535 33.8469C230.599 33.4647 230.761 33.1309 231.016 32.8431C231.272 32.5553 231.592 32.332 231.976 32.1731C232.361 32.0143 232.78 31.9337 233.235 31.9337C233.691 31.9337 234.085 32.0143 234.405 32.1731C234.725 32.3343 234.96 32.5553 235.109 32.8431C235.259 33.1286 235.307 33.4601 235.254 33.8353H234.124L234.117 33.8423Z" fill="white"/>
<path d="M242.158 35.3456C242.043 36.0317 241.82 36.6165 241.486 37.1022C241.152 37.588 240.745 37.9587 240.266 38.2142C239.787 38.4698 239.269 38.5987 238.712 38.5987C238.155 38.5987 237.637 38.4629 237.222 38.1912C236.808 37.9195 236.509 37.5305 236.325 37.024C236.14 36.5175 236.108 35.9097 236.226 35.2006C236.338 34.5145 236.564 33.9275 236.898 33.4417C237.232 32.9536 237.641 32.5807 238.123 32.3251C238.604 32.0696 239.126 31.9384 239.686 31.9384C240.245 31.9384 240.756 32.0742 241.168 32.3458C241.581 32.6175 241.878 33.0066 242.062 33.5154C242.244 34.0242 242.276 34.6343 242.158 35.3456ZM241.003 35.2029C241.081 34.724 241.074 34.3189 240.982 33.9896C240.89 33.6604 240.729 33.4118 240.496 33.2437C240.264 33.0757 239.978 32.9928 239.635 32.9928C239.269 32.9928 238.931 33.0849 238.62 33.2667C238.309 33.4486 238.044 33.7157 237.828 34.0656C237.612 34.4155 237.462 34.8415 237.381 35.3433C237.298 35.8245 237.305 36.2297 237.4 36.5566C237.494 36.8835 237.66 37.1299 237.892 37.2956C238.125 37.4614 238.413 37.5443 238.751 37.5443C239.117 37.5443 239.453 37.4545 239.764 37.2726C240.075 37.0907 240.337 36.826 240.551 36.4783C240.768 36.1307 240.917 35.7048 241 35.2029H241.003Z" fill="white"/>
<path d="M248.437 33.0111C248.314 32.7003 248.098 32.4586 247.787 32.2859C247.476 32.1133 247.074 32.0281 246.574 32.0281H244.143L243.065 38.5111H244.24L244.636 36.1375H245.828L246.708 38.5111H248.018L247.039 35.9373C247.085 35.9211 247.131 35.905 247.175 35.8866C247.546 35.7208 247.843 35.4837 248.07 35.1798C248.296 34.8759 248.443 34.5168 248.512 34.1024C248.582 33.6857 248.556 33.3242 248.434 33.0111H248.437ZM247.32 34.1024C247.283 34.3326 247.207 34.526 247.092 34.6825C246.977 34.8391 246.818 34.9588 246.62 35.0394C246.422 35.12 246.178 35.1614 245.886 35.1614H244.801L245.16 33.0088H246.236C246.526 33.0088 246.758 33.0526 246.929 33.1377C247.099 33.2229 247.216 33.3472 247.281 33.5107C247.343 33.6719 247.357 33.8699 247.318 34.1024H247.32Z" fill="white"/>
<path d="M249.537 27.7921H169.171V28.2525H249.537V27.7921Z" fill="#EB2628"/>
</svg>
